<svg width="24" height="24" viewBox="0 0 24 24" fill="none" xmlns="http://www.w3.org/2000/svg">
<g clip-path="url(#clip0_24_412)">
<path d="M12 24C18.6274 24 24 18.6274 24 12C24 5.37258 18.6274 0 12 0C5.37258 0 0 5.37258 0 12C0 18.6274 5.37258 24 12 24Z" fill="url(#paint0_linear_24_412)"/>
<path fill-rule="evenodd" clip-rule="evenodd" d="M5.4319 11.8733C8.93014 10.3492 11.2629 9.34438 12.43 8.85894C15.7625 7.47285 16.455 7.23205 16.9063 7.22408C17.0056 7.22235 17.2276 7.24696 17.3713 7.36363C17.5846 7.53669 17.5858 7.91235 17.5622 8.16097C17.3816 10.0585 16.6002 14.6631 16.2026 16.7884C16.0344 17.6876 15.7032 17.9892 15.3825 18.0186C14.6857 18.0828 14.1565 17.5581 13.4816 17.1157C12.4254 16.4233 11.8287 15.9924 10.8035 15.3168C9.61878 14.5361 10.3868 14.107 11.062 13.4057C11.2387 13.2222 14.3091 10.4294 14.3685 10.176C14.376 10.1443 14.3829 10.0262 14.3127 9.96388C14.2425 9.90154 14.139 9.92282 14.0643 9.93979C13.9583 9.96383 12.2711 11.079 9.00261 13.2853C8.52369 13.6142 8.0899 13.7744 7.70126 13.7661C7.27278 13.7568 6.44862 13.5238 5.83592 13.3246C5.08442 13.0804 4.48714 12.9512 4.53917 12.5363C4.56626 12.3202 4.86383 12.0992 5.4319 11.8733Z" fill="white"/>
</g>
<defs>
<linearGradient id="paint0_linear_24_412" x1="12" y1="0" x2="12" y2="23.8125" gradientUnits="userSpaceOnUse">
<stop stop-color="#2AABEE"/>
<stop offset="1" stop-color="#229ED9"/>
</linearGradient>
<clipPath id="clip0_24_412">
<rect width="24" height="24" fill="white"/>
</clipPath>
</defs>
</svg>
