<svg width="24" height="24" viewBox="0 0 24 24" fill="none" xmlns="http://www.w3.org/2000/svg">
<g clip-path="url(#clip0_24_448)">
<path d="M12 24C18.6274 24 24 18.6274 24 12C24 5.37258 18.6274 0 12 0C5.37258 0 0 5.37258 0 12C0 18.6274 5.37258 24 12 24Z" fill="#665CAC"/>
<path d="M13.2632 5.6842H10.7368C9.56431 5.6842 8.4398 6.14999 7.61069 6.9791C6.78158 7.80821 6.3158 8.93272 6.3158 10.1053V12C6.31544 12.8369 6.55267 13.6568 6.99988 14.3642C7.44709 15.0717 8.08593 15.6376 8.84211 15.9963V18.1074C8.84287 18.1485 8.85562 18.1886 8.87882 18.2227C8.90202 18.2567 8.93465 18.2832 8.97271 18.299C9.01076 18.3147 9.05259 18.319 9.09306 18.3114C9.13353 18.3037 9.17088 18.2844 9.20053 18.2558L11.0353 16.421H13.2632C14.4357 16.421 15.5602 15.9553 16.3893 15.1261C17.2184 14.297 17.6842 13.1725 17.6842 12V10.1053C17.6842 8.93272 17.2184 7.80821 16.3893 6.9791C15.5602 6.14999 14.4357 5.6842 13.2632 5.6842ZM14.9179 13.9705L14.2863 14.6021C13.6137 15.2605 11.8579 14.5089 10.3105 12.9284C8.76317 11.3479 8.08422 9.57473 8.73159 8.91631L9.36316 8.28473C9.48695 8.17362 9.64789 8.11295 9.81422 8.1147C9.98055 8.11646 10.1402 8.1805 10.2616 8.2942L11.1837 9.24157C11.2569 9.31715 11.3097 9.4101 11.3372 9.5117C11.3646 9.6133 11.3657 9.72021 11.3405 9.82236C11.3152 9.92452 11.2644 10.0186 11.1927 10.0957C11.1211 10.1728 11.0311 10.2304 10.9311 10.2632C10.7828 10.3086 10.6578 10.4095 10.5819 10.5447C10.5061 10.68 10.4852 10.8392 10.5237 10.9895C10.6816 11.6905 11.5721 12.5684 12.2353 12.7405C12.3848 12.7761 12.5421 12.756 12.6779 12.6839C12.8136 12.6119 12.9184 12.4928 12.9726 12.3489C13.0077 12.2486 13.0679 12.159 13.1476 12.0888C13.2273 12.0185 13.3237 11.9699 13.4276 11.9477C13.5315 11.9255 13.6394 11.9304 13.7408 11.962C13.8423 11.9935 13.9339 12.0507 14.0068 12.1279L14.9274 13.0753C15.0379 13.1987 15.0983 13.359 15.0965 13.5247C15.0948 13.6904 15.031 13.8495 14.9179 13.9705ZM12.5747 8.6842C12.5119 8.6839 12.4492 8.6876 12.3868 8.69526C12.3314 8.70133 12.2757 8.68511 12.2322 8.65017C12.1887 8.61523 12.1608 8.56443 12.1547 8.50894C12.1487 8.45345 12.1649 8.39783 12.1998 8.3543C12.2348 8.31077 12.2856 8.28291 12.3411 8.27684C12.4186 8.2679 12.4967 8.26369 12.5747 8.2642C13.1335 8.26378 13.6696 8.48525 14.0652 8.87992C14.4607 9.27459 14.6834 9.81017 14.6842 10.3689C14.6847 10.447 14.6805 10.5251 14.6716 10.6026C14.6686 10.6301 14.6602 10.6567 14.6469 10.6809C14.6336 10.7052 14.6157 10.7266 14.5941 10.7439C14.5726 10.7612 14.5478 10.774 14.5213 10.7818C14.4948 10.7895 14.467 10.7919 14.4395 10.7889C14.412 10.7859 14.3854 10.7775 14.3612 10.7643C14.3369 10.751 14.3156 10.733 14.2983 10.7115C14.281 10.6899 14.2681 10.6652 14.2603 10.6386C14.2526 10.6121 14.2502 10.5843 14.2532 10.5568C14.26 10.4944 14.2637 10.4317 14.2642 10.3689C14.2634 9.92156 14.085 9.49281 13.7682 9.1769C13.4514 8.861 13.0221 8.68378 12.5747 8.6842ZM13.8379 10.3689C13.8333 10.4217 13.8091 10.4708 13.7701 10.5066C13.7311 10.5424 13.6801 10.5623 13.6271 10.5623C13.5742 10.5623 13.5231 10.5424 13.4841 10.5066C13.4451 10.4708 13.4209 10.4217 13.4163 10.3689C13.4163 10.1457 13.3277 9.93168 13.1698 9.77385C13.012 9.61603 12.7979 9.52736 12.5747 9.52736C12.5455 9.52989 12.5161 9.52632 12.4883 9.51688C12.4606 9.50744 12.4351 9.49232 12.4135 9.4725C12.3919 9.45268 12.3746 9.42859 12.3628 9.40174C12.351 9.3749 12.3449 9.3459 12.3449 9.31657C12.3449 9.28725 12.351 9.25824 12.3628 9.2314C12.3746 9.20456 12.3919 9.18046 12.4135 9.16064C12.4351 9.14082 12.4606 9.12571 12.4883 9.11627C12.5161 9.10682 12.5455 9.10325 12.5747 9.10578C12.9098 9.10578 13.231 9.23887 13.4679 9.47575C13.7048 9.71264 13.8379 10.0339 13.8379 10.3689ZM15.4437 11.0526C15.439 11.0813 15.4285 11.1088 15.4127 11.1332C15.397 11.1577 15.3764 11.1786 15.3522 11.1947C15.328 11.2109 15.3007 11.2218 15.2721 11.2269C15.2434 11.232 15.2141 11.2312 15.1858 11.2245C15.1575 11.2177 15.1309 11.2052 15.1077 11.1877C15.0844 11.1702 15.065 11.1482 15.0507 11.1228C15.0364 11.0975 15.0274 11.0695 15.0244 11.0406C15.0214 11.0117 15.0244 10.9825 15.0332 10.9547C15.0788 10.7639 15.1016 10.5683 15.1011 10.3721C15.1011 9.70208 14.8349 9.0595 14.3611 8.58572C13.8873 8.11195 13.2448 7.84578 12.5747 7.84578H12.379C12.3514 7.84786 12.3237 7.84448 12.2974 7.83584C12.2711 7.8272 12.2468 7.81347 12.2258 7.79544C12.1835 7.75902 12.1574 7.70727 12.1532 7.65157C12.149 7.59588 12.1671 7.5408 12.2035 7.49846C12.2399 7.45611 12.2917 7.42997 12.3474 7.42578C12.4232 7.41947 12.499 7.41631 12.5747 7.41631C13.357 7.41756 14.1068 7.7292 14.6595 8.28279C15.2122 8.83638 15.5226 9.58667 15.5226 10.3689C15.5227 10.5991 15.4962 10.8285 15.4437 11.0526Z" fill="white"/>
</g>
<defs>
<clipPath id="clip0_24_448">
<rect width="24" height="24" fill="white"/>
</clipPath>
</defs>
</svg>
